<?xml version="1.0" standalone="no"?>
<!DOCTYPE svg PUBLIC "-//W3C//DTD SVG 20010904//EN"
 "http://www.w3.org/TR/2001/REC-SVG-20010904/DTD/svg10.dtd">
<svg version="1.0" xmlns="http://www.w3.org/2000/svg"
 width="76.000000pt" height="76.000000pt" viewBox="0 0 76.000000 76.000000"
 preserveAspectRatio="xMidYMid meet">
<metadata>
Created by potrace 1.14, written by Peter Selinger 2001-2017
</metadata>
<g transform="translate(0.000000,76.000000) scale(0.100000,-0.100000)"
fill="#000000" stroke="none">
<path d="M273 746 c-104 -34 -194 -114 -241 -214 -23 -49 -27 -70 -27 -152 0
-87 3 -101 32 -161 52 -105 160 -191 268 -213 29 -6 29 -5 -7 14 -20 11 -39
23 -42 28 -9 15 45 154 82 210 l37 57 3 -159 3 -159 52 6 c117 14 240 108 295
225 23 49 27 70 27 152 0 82 -4 103 -27 152 -37 79 -108 152 -185 190 -54 26
-79 32 -146 35 -51 2 -98 -2 -124 -11z m107 -31 c0 -23 -3 -25 -47 -25 -34 0
-44 3 -33 10 16 10 15 12 -15 28 -17 9 -10 11 38 12 54 0 57 -1 57 -25z m59
-103 c41 -51 50 -68 37 -70 -13 -3 -16 -16 -16 -68 l0 -64 40 0 40 0 0 45 c0
25 -5 45 -11 45 -11 0 61 99 73 100 3 0 25 -22 48 -50 23 -27 37 -50 31 -50
-15 0 -14 -87 1 -92 18 -6 -7 -105 -47 -186 -37 -73 -104 -158 -105 -132 0 31
-68 156 -108 200 -39 44 -40 45 -60 26 -35 -31 -91 -118 -116 -180 l-23 -57
-27 31 c-76 91 -157 300 -116 300 6 0 10 20 10 45 0 26 -5 45 -11 45 -6 0 8
23 31 50 23 28 45 50 48 50 12 -1 84 -100 73 -100 -6 0 -11 -20 -11 -45 l0
-45 40 0 40 0 0 64 c0 52 -3 65 -16 68 -13 2 -4 19 37 70 30 37 56 67 59 67 3
0 29 -30 59 -67z"/>
</g>
</svg>
